<svg width="24" height="24" viewBox="0 0 24 24" fill="none" xmlns="http://www.w3.org/2000/svg">
<path d="M12 6.1875H21.09C21.1888 6.1874 21.2859 6.21334 21.3715 6.26272C21.4571 6.3121 21.5281 6.38316 21.5775 6.46875C22.0792 7.33451 22.4614 8.2642 22.7137 9.2325C22.734 9.31595 22.7358 9.40283 22.719 9.48705C22.7021 9.57126 22.6671 9.65077 22.6163 9.72C22.5618 9.78616 22.4938 9.83984 22.4168 9.87737C22.3398 9.9149 22.2556 9.93541 22.17 9.9375H12C11.4533 9.93849 10.9293 10.1561 10.5427 10.5427C10.1561 10.9293 9.93849 11.4533 9.9375 12C9.9376 12.0739 9.92312 12.1471 9.89488 12.2154C9.86665 12.2837 9.82522 12.3457 9.77297 12.398C9.72072 12.4502 9.65867 12.4917 9.59038 12.5199C9.52209 12.5481 9.4489 12.5626 9.375 12.5625H6.75C6.6761 12.5626 6.60291 12.5481 6.53462 12.5199C6.46633 12.4917 6.40429 12.4502 6.35203 12.398C6.29978 12.3457 6.25835 12.2837 6.23012 12.2154C6.20188 12.1471 6.1874 12.0739 6.1875 12C6.18879 10.4588 6.80159 8.98114 7.89137 7.89137C8.98114 6.80159 10.4588 6.18879 12 6.1875Z" fill="#282828"/>
<path d="M11.9995 17.8125H2.90951C2.8107 17.8126 2.71361 17.7867 2.62803 17.7373C2.54244 17.6879 2.47138 17.6168 2.42201 17.5312C1.9203 16.6655 1.53808 15.7358 1.28576 14.7675C1.25068 14.634 1.26673 14.4923 1.33076 14.37C1.37808 14.2782 1.44952 14.2011 1.5374 14.1469C1.62528 14.0928 1.72627 14.0636 1.82951 14.0625H11.9995C12.5462 14.0615 13.0702 13.8439 13.4568 13.4573C13.8434 13.0707 14.061 12.5467 14.062 12C14.0619 11.9261 14.0764 11.8529 14.1046 11.7846C14.1329 11.7163 14.1743 11.6543 14.2265 11.602C14.2788 11.5498 14.3408 11.5083 14.4091 11.4801C14.4774 11.4519 14.5506 11.4374 14.6245 11.4375H17.2495C17.3234 11.4374 17.3966 11.4519 17.4649 11.4801C17.5332 11.5083 17.5952 11.5498 17.6475 11.602C17.6997 11.6543 17.7412 11.7163 17.7694 11.7846C17.7976 11.8529 17.8121 11.9261 17.812 12C17.8107 13.5412 17.1979 15.0189 16.1081 16.1086C15.0184 17.1984 13.5407 17.8112 11.9995 17.8125Z" fill="#282828"/>
<path d="M1.5 12.5625C1.4261 12.5626 1.35291 12.5481 1.28462 12.5199C1.21633 12.4916 1.15429 12.4502 1.10203 12.398C1.04978 12.3457 1.00835 12.2837 0.980118 12.2154C0.951884 12.1471 0.937402 12.0739 0.937501 12C0.936648 9.87164 1.55003 7.78826 2.70403 5.99991C3.85802 4.21156 5.5036 2.79424 7.44324 1.91805C9.38288 1.04187 11.5342 0.74406 13.6389 1.06037C15.7436 1.37667 17.7123 2.29365 19.3088 3.70125C19.3746 3.76018 19.4261 3.8334 19.4592 3.9153C19.4924 3.99721 19.5063 4.08562 19.5 4.17375C19.4863 4.31375 19.4212 4.44372 19.3174 4.53859C19.2135 4.63345 19.0782 4.6865 18.9375 4.6875H12C10.0614 4.68998 8.20284 5.4612 6.83202 6.83202C5.4612 8.20284 4.68998 10.0614 4.6875 12C4.6876 12.0739 4.67312 12.1471 4.64488 12.2154C4.61665 12.2837 4.57522 12.3457 4.52297 12.398C4.47072 12.4502 4.40867 12.4916 4.34038 12.5199C4.27209 12.5481 4.1989 12.5626 4.125 12.5625H1.5Z" fill="#737FEF"/>
<path d="M23.0634 12C23.0922 21.4534 11.7519 26.5729 4.69211 20.2988C4.58551 20.2042 4.51856 20.0728 4.50465 19.931C4.49075 19.7891 4.53091 19.6472 4.61711 19.5338C4.66938 19.4649 4.73686 19.4092 4.81428 19.3708C4.8917 19.3324 4.97695 19.3124 5.06336 19.3125H12.0009C13.9395 19.31 15.798 18.5388 17.1688 17.168C18.5397 15.7972 19.3109 13.9386 19.3134 12C19.3133 11.9261 19.3277 11.8529 19.356 11.7846C19.3842 11.7163 19.4256 11.6543 19.4779 11.602C19.5301 11.5498 19.5922 11.5084 19.6605 11.4801C19.7288 11.4519 19.802 11.4374 19.8759 11.4375H22.5009C22.5748 11.4374 22.6479 11.4519 22.7162 11.4801C22.7845 11.5084 22.8466 11.5498 22.8988 11.602C22.9511 11.6543 22.9925 11.7163 23.0207 11.7846C23.049 11.8529 23.0635 11.9261 23.0634 12Z" fill="#737FEF"/>
</svg>
