<svg width="21" height="22" viewBox="0 0 21 22" fill="none" xmlns="http://www.w3.org/2000/svg">
<path d="M18.5 6.27774L9.99997 11M9.99997 11L1.49997 6.27774M9.99997 11L10 20.5M12 19.8889L10.777 20.5683C10.4934 20.7259 10.3516 20.8046 10.2015 20.8355C10.0685 20.8629 9.93146 20.8629 9.79855 20.8355C9.64838 20.8046 9.50658 20.7259 9.22297 20.5683L1.82297 16.4572C1.52346 16.2908 1.37368 16.2076 1.26463 16.0893C1.16816 15.9846 1.09515 15.8605 1.05048 15.7253C1 15.5725 1 15.4012 1 15.0585V6.94144C1 6.5988 1 6.42748 1.05048 6.27468C1.09515 6.1395 1.16816 6.01542 1.26463 5.91073C1.37368 5.79239 1.52345 5.70919 1.82297 5.54279L9.22297 1.43168C9.50657 1.27412 9.64838 1.19534 9.79855 1.16445C9.93146 1.13712 10.0685 1.13712 10.2015 1.16445C10.3516 1.19534 10.4934 1.27412 10.777 1.43168L18.177 5.54279C18.4766 5.70919 18.6263 5.79239 18.7354 5.91073C18.8318 6.01542 18.9049 6.1395 18.9495 6.27468C19 6.42747 19 6.5988 19 6.94144L19 11.5M5.5 3.49999L14.5 8.49999M14 17L16 19L20 15" stroke="#04C000" stroke-width="2" stroke-linecap="round" stroke-linejoin="round"/>
</svg>
