<svg width="20" height="20" viewBox="0 0 20 20" fill="none" xmlns="http://www.w3.org/2000/svg">
<path d="M9.58268 4.16669H9.94468C12.4841 4.16669 13.7537 4.16669 14.2357 4.62276C14.6523 5.01699 14.837 5.59775 14.7245 6.1602C14.5944 6.81087 13.5578 7.54407 11.4846 9.01046L8.09745 11.4062C6.02427 12.8726 4.98767 13.6058 4.85755 14.2565C4.74506 14.819 4.9297 15.3997 5.34632 15.7939C5.8283 16.25 7.09798 16.25 9.63735 16.25H10.416M6.66602 4.16669C6.66602 5.5474 5.54673 6.66669 4.16602 6.66669C2.7853 6.66669 1.66602 5.5474 1.66602 4.16669C1.66602 2.78598 2.7853 1.66669 4.16602 1.66669C5.54673 1.66669 6.66602 2.78598 6.66602 4.16669ZM18.3327 15.8334C18.3327 17.2141 17.2134 18.3334 15.8327 18.3334C14.452 18.3334 13.3327 17.2141 13.3327 15.8334C13.3327 14.4526 14.452 13.3334 15.8327 13.3334C17.2134 13.3334 18.3327 14.4526 18.3327 15.8334Z" stroke="#282828" stroke-width="2" stroke-linecap="round" stroke-linejoin="round"/>
</svg>
