<svg width="22" height="19" viewBox="0 0 22 19" fill="none" xmlns="http://www.w3.org/2000/svg">
<path d="M14.7736 9.97306L13.6506 8.85001C13.8006 8.0218 13.5643 7.27725 12.9419 6.61636C12.3195 5.95546 11.5557 5.70001 10.6506 5.85001L9.52751 4.72696C9.75315 4.62568 9.98455 4.54972 10.2217 4.49909C10.4589 4.44844 10.7185 4.42311 11.0006 4.42311C12.1352 4.42311 13.0983 4.81895 13.89 5.61061C14.6816 6.40228 15.0775 7.36541 15.0775 8.50001C15.0775 8.78206 15.0521 9.04488 15.0015 9.28846C14.9509 9.53205 14.8749 9.76025 14.7736 9.97306ZM17.9544 13.0846L16.8506 12.05C17.4839 11.5667 18.0464 11.0375 18.5381 10.4625C19.0297 9.88751 19.4506 9.23335 19.8006 8.50001C18.9672 6.81668 17.7714 5.47918 16.2131 4.48751C14.6547 3.49585 12.9172 3.00001 11.0006 3.00001C10.5172 3.00001 10.0422 3.03335 9.57556 3.10001C9.1089 3.16668 8.65056 3.26668 8.20056 3.40001L7.03521 2.23466C7.66726 1.98338 8.31277 1.79812 8.97174 1.67889C9.6307 1.55965 10.307 1.50004 11.0006 1.50004C13.3441 1.50004 15.4576 2.14619 17.3409 3.43849C19.2242 4.7308 20.598 6.41798 21.4621 8.50001C21.0915 9.3936 20.613 10.2276 20.0265 11.0019C19.44 11.7763 18.7493 12.4705 17.9544 13.0846ZM18.7621 18.8692L14.716 14.8538C14.2031 15.0436 13.6349 15.1987 13.0112 15.3192C12.3874 15.4397 11.7172 15.5 11.0006 15.5C8.65058 15.5 6.53713 14.8538 4.66021 13.5615C2.7833 12.2692 1.40958 10.582 0.539062 8.50001C0.908296 7.61668 1.38522 6.79264 1.96984 6.02789C2.55445 5.26315 3.19805 4.60002 3.90061 4.03849L1.13136 1.23849L2.18521 0.184662L19.8159 17.8154L18.7621 18.8692ZM4.95444 5.09229C4.42624 5.5128 3.91245 6.01826 3.41309 6.60866C2.91372 7.19905 2.50955 7.8295 2.20056 8.50001C3.0339 10.1833 4.22973 11.5208 5.78806 12.5125C7.3464 13.5042 9.0839 14 11.0006 14C11.4557 14 11.9089 13.9615 12.3602 13.8846C12.8115 13.8077 13.1942 13.7282 13.5083 13.6462L12.2429 12.35C12.0724 12.4192 11.8749 12.4743 11.6506 12.5154C11.4262 12.5564 11.2095 12.5769 11.0006 12.5769C9.86596 12.5769 8.90283 12.1811 8.11116 11.3894C7.3195 10.5977 6.92366 9.63461 6.92366 8.50001C6.92366 8.29745 6.94418 8.08559 6.98521 7.86444C7.02625 7.64327 7.08137 7.44102 7.15059 7.25769L4.95444 5.09229Z" fill="#282828"/>
</svg>
