<svg width="22" height="15" viewBox="0 0 22 15" fill="none" xmlns="http://www.w3.org/2000/svg">
<path d="M11.0028 11.5769C12.1359 11.5769 13.0983 11.1803 13.89 10.3872C14.6816 9.59397 15.0775 8.63083 15.0775 7.49773C15.0775 6.36465 14.6809 5.40227 13.8877 4.61061C13.0945 3.81894 12.1314 3.42311 10.9983 3.42311C9.8652 3.42311 8.90283 3.81969 8.11116 4.61286C7.3195 5.40604 6.92366 6.36918 6.92366 7.50228C6.92366 8.63536 7.32025 9.59774 8.11341 10.3894C8.9066 11.1811 9.86974 11.5769 11.0028 11.5769ZM11.0006 10.2C10.2506 10.2 9.61306 9.9375 9.08806 9.41251C8.56306 8.88751 8.30056 8.25001 8.30056 7.50001C8.30056 6.75001 8.56306 6.11251 9.08806 5.58751C9.61306 5.06251 10.2506 4.80001 11.0006 4.80001C11.7506 4.80001 12.3881 5.06251 12.9131 5.58751C13.4381 6.11251 13.7006 6.75001 13.7006 7.50001C13.7006 8.25001 13.4381 8.88751 12.9131 9.41251C12.3881 9.9375 11.7506 10.2 11.0006 10.2ZM11.0019 14.5C8.70232 14.5 6.607 13.8657 4.71596 12.5971C2.82495 11.3285 1.43265 9.62949 0.539062 7.50001C1.43265 5.37052 2.8245 3.67149 4.71461 2.40291C6.60471 1.13432 8.69957 0.500031 10.9992 0.500031C13.2988 0.500031 15.3941 1.13432 17.2852 2.40291C19.1762 3.67149 20.5685 5.37052 21.4621 7.50001C20.5685 9.62949 19.1766 11.3285 17.2865 12.5971C15.3964 13.8657 13.3016 14.5 11.0019 14.5ZM11.0006 13C12.8839 13 14.6131 12.5042 16.1881 11.5125C17.7631 10.5208 18.9672 9.18334 19.8006 7.50001C18.9672 5.81667 17.7631 4.47917 16.1881 3.48751C14.6131 2.49584 12.8839 2.00001 11.0006 2.00001C9.11723 2.00001 7.38806 2.49584 5.81306 3.48751C4.23806 4.47917 3.0339 5.81667 2.20056 7.50001C3.0339 9.18334 4.23806 10.5208 5.81306 11.5125C7.38806 12.5042 9.11723 13 11.0006 13Z" fill="#282828"/>
</svg>
